<?xml version="1.0" encoding="UTF-8" standalone="no"?>
<!-- Created with Inkscape (http://www.inkscape.org/) -->

<svg
   xmlns:dc="http://purl.org/dc/elements/1.1/"
   xmlns:cc="http://creativecommons.org/ns#"
   xmlns:rdf="http://www.w3.org/1999/02/22-rdf-syntax-ns#"
   xmlns:svg="http://www.w3.org/2000/svg"
   xmlns="http://www.w3.org/2000/svg"
   xmlns:sodipodi="http://sodipodi.sourceforge.net/DTD/sodipodi-0.dtd"
   xmlns:inkscape="http://www.inkscape.org/namespaces/inkscape"
   version="1.1"
   id="svg2"
   width="198.51848"
   height="60"
   viewBox="0 0 198.51848 60"
   sodipodi:docname="logo3.svg"
   inkscape:version="0.92.5 (2060ec1f9f, 2020-04-08)">
  <metadata
     id="metadata8">
    <rdf:RDF>
      <cc:Work
         rdf:about="">
        <dc:format>image/svg+xml</dc:format>
        <dc:type
           rdf:resource="http://purl.org/dc/dcmitype/StillImage" />
        <dc:title />
      </cc:Work>
    </rdf:RDF>
  </metadata>
  <defs
     id="defs6" />
  <sodipodi:namedview
     pagecolor="#ffffff"
     bordercolor="#666666"
     borderopacity="1"
     objecttolerance="10"
     gridtolerance="10"
     guidetolerance="10"
     inkscape:pageopacity="0"
     inkscape:pageshadow="2"
     inkscape:window-width="1366"
     inkscape:window-height="668"
     id="namedview4"
     showgrid="false"
     inkscape:zoom="2.36"
     inkscape:cx="60.393424"
     inkscape:cy="1.7086058"
     inkscape:window-x="0"
     inkscape:window-y="27"
     inkscape:window-maximized="1"
     inkscape:current-layer="svg2" />
  <g
     inkscape:groupmode="layer"
     id="layer2"
     inkscape:label="Layer 2"
     style="display:inline" />
  <text
     xml:space="preserve"
     style="font-style:normal;font-weight:normal;font-size:40px;line-height:1.25;font-family:sans-serif;letter-spacing:0px;word-spacing:0px;fill:#000000;fill-opacity:1;stroke:none"
     x="59.299999"
     y="39.200596"
     id="text819"><tspan
       sodipodi:role="line"
       id="tspan817"
       x="59.299999"
       y="39.200596"
       style="font-style:normal;font-variant:normal;font-weight:normal;font-stretch:normal;font-size:28px;font-family:'G2 Rubber Stamp LET';-inkscape-font-specification:'G2 Rubber Stamp LET, Normal';font-variant-ligatures:normal;font-variant-caps:normal;font-variant-numeric:normal;font-feature-settings:normal;text-align:start;writing-mode:lr-tb;text-anchor:start">Parasite</tspan></text>
  <g
     inkscape:groupmode="layer"
     id="layer1"
     inkscape:label="Layer 1" />
  <path
     inkscape:connector-curvature="0"
     id="path5995"
     d="m 27.101015,59.612268 c -1.733497,-0.2393 -5.009814,-0.54712 -7.280703,-0.68403 -4.831028,-0.29128 -4.155615,0.29336 -7.112146,-6.15618 -2.740466,-5.97819 -6.113526,-12.8149 -6.247397,-12.66256 -0.06377,0.0726 0.103176,0.64575 0.370984,1.27376 0.921112,2.15999 -0.296441,-0.0596 -2.54318,-4.63612 -1.237835,-2.52144 -2.294111,-4.53495 -2.347279,-4.47445 -0.05317,0.0605 0.185654,0.73972 0.530717,1.50937 0.345062,0.76965 0.559848,1.39936 0.4773,1.39936 -0.08255,0 -0.425732,-0.61482 -0.762633,-1.36626 -0.336901,-0.75145 -0.714162,-1.36627 -0.838358,-1.36627 -0.124197,0 -0.478376,-0.53365 -0.787066,-1.1859 L 0,30.077088 1.545353,27.134808 c 0.849944,-1.61825 1.456153,-3.1065 1.347132,-3.30723 -0.117115,-0.21563 -0.05642,-0.26523 0.148332,-0.12123 0.190603,0.13404 0.346552,0.0826 0.346552,-0.11435 0,-0.19694 0.896739,-2.12617 1.992754,-4.28718 1.198404,-2.3629 2.025829,-4.40347 2.07573,-5.1191 0.04564,-0.65449 0.389074,-1.67913 0.763192,-2.27698 0.577878,-0.92347 0.708023,-0.9968 0.865055,-0.4874 0.139312,0.45191 0.667376,-0.22882 2.143843,-2.7636595 1.077451,-1.8498 2.471677,-4.33563 3.098281,-5.52406 0.626603,-1.18843 1.427178,-2.29305001 1.779055,-2.45470001 l 0.639777,-0.29392 -0.650907,-0.0217 c -0.431606,-0.0143 -0.869669,0.38113 -1.300216,1.17383001 -0.35712,0.65752 -0.713803,1.19548 -0.792629,1.19548 -0.166925,0 0.06651,-0.48544 0.862287,-1.79322001 L 15.435158,8.8488328e-5 22.243648,0.00208849 c 4.900804,0.001 8.19624,0.19069 11.76134,0.67637 2.724068,0.37111001 6.236092,0.67805001 7.804492,0.68211001 l 2.85164,0.007 0.79439,1.45104 c 0.43691,0.79808 1.36474,2.75754 2.06183,4.35436 1.62984,3.7334195 6.59845,14.0041995 6.7747,14.0041995 0.0741,0 -0.21424,-0.78381 -0.64087,-1.74179 -0.42661,-0.95799 -0.71915,-1.80611 -0.65007,-1.88471 0.0691,-0.0786 0.57191,0.82049 1.1174,1.99797 1.5021,3.24236 3.63606,7.43514 3.7842,7.43514 0.0723,0 -0.0845,-0.47539 -0.34858,-1.05643 -0.73831,-1.62462 -0.33507,-1.51824 0.45848,0.12095 0.3855,0.79631 0.9482,1.72107 1.25044,2.05503 1.11112,1.2277 1.00999,2.08377 -0.60572,5.12752 -0.83628,1.57542 -1.61777,3.15831 -1.73665,3.51755 -0.11888,0.35923 -0.64509,1.42167 -1.16936,2.36097 -1.51448,2.71341 -2.94236,6.07344 -2.97562,7.0021 -0.0504,1.40832 -1.66086,4.03833 -1.66086,2.71237 0,-0.19895 -0.12689,-0.27249 -0.28198,-0.16342 -0.3082,0.21675 -3.4963,5.68715 -5.1237,8.79167 -0.89259,1.70276 -1.15467,1.96387 -2.08508,2.07737 -1.03403,0.12613 -1.02861,0.13143 0.19134,0.18723 0.95767,0.0438 1.29709,-0.0844 1.43079,-0.54032 0.0964,-0.32876 0.45453,-0.98201 0.79584,-1.45166 0.47178,-0.64917 0.43625,-0.48537 -0.14817,0.68313 l -0.76875,1.53705 -7.436142,0.0512 c -4.46868,0.0308 -8.693912,-0.12244 -10.587963,-0.3839 z m 16.810375,-2.52844 c 3e-4,-0.11714 0.37185,-0.70809 0.82548,-1.31322 0.45362,-0.60514 1.89639,-3.44868 3.20616,-6.31897 1.30976,-2.8703 2.49254,-5.27028 2.62838,-5.33329 0.13585,-0.063 0.17064,-0.25514 0.0773,-0.42696 -0.0933,-0.17181 -0.0186,-0.31239 0.16593,-0.31239 0.18458,0 0.25212,-0.1537 0.15009,-0.34156 -0.10204,-0.18787 -0.0345,-0.34157 0.15008,-0.34157 0.18459,0 0.25213,-0.1537 0.15009,-0.34157 -0.10203,-0.18786 -0.0345,-0.34156 0.15009,-0.34156 0.18458,0 0.25212,-0.15371 0.15008,-0.34157 -0.10203,-0.18786 -0.0472,-0.34156 0.12181,-0.34156 0.16903,0 0.46064,-0.32596 0.64801,-0.72436 0.24269,-0.51599 0.24507,-0.65711 0.008,-0.49058 -0.23481,0.16513 -0.23072,-0.0202 0.014,-0.63121 0.19049,-0.47573 0.46012,-0.78494 0.59919,-0.68715 0.13906,0.0978 0.17988,-0.0385 0.0907,-0.30291 -0.21614,-0.64092 1.0415,-3.03043 1.44545,-2.74635 0.18181,0.12786 0.22903,0.0608 0.11066,-0.15714 -0.11357,-0.20911 0.27079,-1.45866 0.85414,-2.77678 0.58334,-1.31812 1.06063,-2.54036 1.06063,-2.71609 0,-0.17573 -0.56624,-1.44763 -1.25832,-2.82645 -2.26167,-4.50586 -6.94917,-14.39982 -9.24774,-19.5192895 l -2.2513,-5.01416 -13.584792,0.0935 -13.584794,0.0934 -0.858464,1.18518 c -0.472156,0.65185 -1.915741,3.49075 -3.207968,6.3086695 -1.292227,2.81792 -2.459263,5.17504 -2.593414,5.23805 -0.134152,0.063 -0.16756,0.25514 -0.07424,0.42696 0.09332,0.17182 0.01865,0.31239 -0.165932,0.31239 -0.184582,0 -0.25212,0.15371 -0.150086,0.34157 0.102034,0.18786 0.03449,0.34157 -0.150086,0.34157 -0.184582,0 -0.252121,0.1537 -0.150087,0.34156 0.102035,0.18786 0.0345,0.34157 -0.150086,0.34157 -0.184582,0 -0.252121,0.1537 -0.150086,0.34156 0.102034,0.18786 0.04722,0.34157 -0.12181,0.34157 -0.16903,0 -0.460634,0.32596 -0.648009,0.72435 -0.242687,0.516 -0.24507,0.65711 -0.0083,0.49059 0.234813,-0.16514 0.230719,0.0202 -0.01395,0.6312 -0.19049,0.47573 -0.482541,0.76918 -0.649003,0.65212 -0.168546,-0.11853 -0.210571,-0.0433 -0.09484,0.16977 0.295693,0.54442 -0.959227,3.21853 -1.373639,2.92709 -0.202707,-0.14255 -0.250985,-0.0809 -0.12223,0.15621 0.117047,0.2155 -0.35158,1.62625 -1.041395,3.135 l -1.254208,2.74318 2.100923,4.17605 c 2.260438,4.49312 8.002917,16.60557 9.800323,20.67156 l 1.101307,2.4913 13.647467,-0.0582 c 7.506107,-0.032 13.647779,-0.154 13.648169,-0.27113 z m -10.549336,-8.11411 -3.740506,-4.25631 -3.818242,4.15309 c -4.35391,4.73573 -3.856812,4.59647 -7.251264,2.03145 -3.370149,-2.54666 -6.800383,-6.98218 -8.27151,-10.6956 l -0.568292,-1.43449 3.72997,-4.26957 3.729971,-4.26958 -3.6366,-4.37763 -3.6366,-4.37764 0.520046,-1.24094 C 12.432855,15.427118 17.339774,9.9996685 21.420153,8.0643785 l 1.073025,-0.50893 3.706036,4.2272395 3.706036,4.22724 3.834806,-4.10572 c 3.037538,-3.2521295 3.959923,-4.0605395 4.436601,-3.8883795 1.28494,0.46406 5.070853,3.6186795 6.830473,5.6915095 1.82908,2.15465 3.67594,5.15063 4.46371,7.24104 l 0.40803,1.08275 -3.72355,4.26958 -3.72354,4.26957 3.57683,4.26957 c 1.96725,2.34827 3.58325,4.43035 3.59109,4.62685 0.0335,0.83807 -2.88476,5.63194 -4.73346,7.77583 -1.88626,2.18744 -5.24261,4.90182 -6.986127,5.64989 -0.727279,0.31205 -1.019405,0.0584 -4.518059,-3.9227 z m -7.76176,-5.4201 4.044133,-4.6113 4.129605,4.69008 4.129609,4.69007 1.035001,-0.63425 c 1.605088,-0.98359 4.148638,-3.7159 5.430058,-5.83304 l 1.16204,-1.91989 -4.11067,-4.67752 -4.110663,-4.67752 4.120303,-4.69747 4.1203,-4.69747 -0.55739,-1.17773 c -0.86415,-1.8259 -3.2654,-4.72058 -5.124595,-6.17763 l -1.685668,-1.32106 -4.118805,4.67781 -4.118803,4.6778 -4.174062,-4.75876 -4.174061,-4.75876 -1.375181,1.07507 c -2.071013,1.61906 -3.743262,3.47818 -5.007774,5.56737 l -1.137125,1.87874 4.113621,4.68985 4.113621,4.68986 -4.0551,4.58026 c -2.230305,2.51913 -4.055101,4.76596 -4.055101,4.99294 0,0.54109 2.380274,4.16734 3.486517,5.31157 1.020021,1.05504 3.427305,3.03228 3.691794,3.03228 0.101344,0 2.004122,-2.07508 4.228396,-4.6113 z m -0.300315,-9.43845 c 0,-0.59963 0.192066,-0.95662 0.576164,-1.07092 0.516132,-0.15358 0.575256,-0.49796 0.567448,-3.3052 -0.0075,-2.69684 -0.08783,-3.18997 -0.576164,-3.53699 -0.312097,-0.22179 -0.567448,-0.75053 -0.567448,-1.175 0,-0.76047 0.05528,-0.77175 3.78387,-0.77175 3.488709,0 3.845788,0.0599 4.577634,0.76852 0.727906,0.70476 0.781313,0.92917 0.643678,2.70474 -0.198946,2.56651 -1.010802,3.35806 -3.444227,3.35806 -1.675913,0 -1.697318,0.0125 -1.603605,0.93931 0.0746,0.73777 0.272093,0.96249 0.920457,1.04738 0.671855,0.088 0.825475,0.27866 0.825475,1.0247 v 0.91662 H 28.15162 25.299979 Z m 5.94342,-5.14625 c 0.198114,-0.22543 0.360207,-0.92206 0.360207,-1.54805 0,-0.8627 -0.160757,-1.20584 -0.664192,-1.41776 -1.29517,-0.54518 -1.73719,-0.11067 -1.73719,1.7077 0,1.59913 0.03469,1.66799 0.840484,1.66799 0.462266,0 1.002577,-0.18445 1.200691,-0.40988 z m 22.873161,7.92433 c 0.17671,-0.37572 0.25376,-0.68313 0.17121,-0.68313 -0.0825,0 -0.29467,0.30741 -0.47138,0.68313 -0.17672,0.37572 -0.25376,0.68313 -0.17121,0.68313 0.0825,0 0.29467,-0.30741 0.47138,-0.68313 z m 1.50086,-3.07409 c 0.17671,-0.37573 0.25376,-0.68314 0.17121,-0.68314 -0.0825,0 -0.29467,0.30741 -0.47138,0.68314 -0.17671,0.37572 -0.25376,0.68313 -0.17121,0.68313 0.0825,0 0.29467,-0.30741 0.47138,-0.68313 z M 5.188405,25.959138 c 0.176713,-0.37572 0.253757,-0.68313 0.171209,-0.68313 -0.08255,0 -0.294669,0.30741 -0.471381,0.68313 -0.176713,0.37572 -0.253757,0.68313 -0.171209,0.68313 0.08255,0 0.294669,-0.30741 0.471381,-0.68313 z m 1.500864,-3.07409 c 0.176712,-0.37573 0.253756,-0.68313 0.171209,-0.68313 -0.08255,0 -0.294669,0.3074 -0.471382,0.68313 -0.176712,0.37572 -0.253756,0.68313 -0.171209,0.68313 0.08255,0 0.29467,-0.30741 0.471382,-0.68313 z"
     style="fill:#000000;stroke-width:0.32020113" />
</svg>
