<?xml version="1.0" encoding="UTF-8" standalone="no"?>
<!-- Created with Inkscape (http://www.inkscape.org/) -->

<svg
   xmlns:dc="http://purl.org/dc/elements/1.1/"
   xmlns:cc="http://creativecommons.org/ns#"
   xmlns:rdf="http://www.w3.org/1999/02/22-rdf-syntax-ns#"
   xmlns:svg="http://www.w3.org/2000/svg"
   xmlns="http://www.w3.org/2000/svg"
   xmlns:sodipodi="http://sodipodi.sourceforge.net/DTD/sodipodi-0.dtd"
   xmlns:inkscape="http://www.inkscape.org/namespaces/inkscape"
   version="1.1"
   id="svg2"
   width="200"
   height="200"
   viewBox="0 0 200 200"
   sodipodi:docname="logo.svg"
   inkscape:version="0.92.5 (2060ec1f9f, 2020-04-08)">
  <metadata
     id="metadata8">
    <rdf:RDF>
      <cc:Work
         rdf:about="">
        <dc:format>image/svg+xml</dc:format>
        <dc:type
           rdf:resource="http://purl.org/dc/dcmitype/StillImage" />
        <dc:title />
      </cc:Work>
    </rdf:RDF>
  </metadata>
  <defs
     id="defs6" />
  <sodipodi:namedview
     pagecolor="#ffffff"
     bordercolor="#666666"
     borderopacity="1"
     objecttolerance="10"
     gridtolerance="10"
     guidetolerance="10"
     inkscape:pageopacity="0"
     inkscape:pageshadow="2"
     inkscape:window-width="1366"
     inkscape:window-height="668"
     id="namedview4"
     showgrid="false"
     inkscape:zoom="1.668772"
     inkscape:cx="85.862425"
     inkscape:cy="133.28008"
     inkscape:window-x="0"
     inkscape:window-y="27"
     inkscape:window-maximized="1"
     inkscape:current-layer="svg2" />
  <path
     style="fill:#000000"
     d="m 90,184.52602 c -5.775,-0.7006 -16.68977,-1.60179 -24.255045,-2.00263 -16.09416,-0.85276 -13.844077,0.85886 -23.693509,-18.02339 -9.12963,-17.50232 -20.366693,-37.51809 -20.812673,-37.07211 -0.212435,0.21244 0.34372,1.89057 1.2359,3.72918 3.068607,6.32381 -0.987569,-0.17435 -8.472387,-13.57312 -4.1237428,-7.38202 -7.6426354,-13.27693 -7.8197613,-13.09981 -0.177126,0.17713 0.618491,2.16566 1.7680379,4.41895 C 9.1001094,111.15639 9.8156477,113 9.5406477,113 9.2656477,113 8.1223563,111.2 7,109 5.8776437,106.8 4.6208298,105 4.2070801,105 3.7933304,105 2.6134115,103.43762 1.5850382,101.52805 L -0.28473157,98.056096 4.863479,89.442013 C 7.6949948,84.704268 9.7145305,80.347118 9.3513363,79.759457 8.9611771,79.128166 9.1633686,78.982933 9.8454915,79.404508 10.480471,79.796948 11,79.646296 11,79.069728 c 0,-0.576568 2.98741,-6.224761 6.63869,-12.55154 3.992381,-6.917825 6.74888,-12.891985 6.915121,-14.987139 0.152037,-1.916148 1.296165,-4.915989 2.542507,-6.666315 1.925153,-2.703628 2.358718,-2.918307 2.88186,-1.426944 0.464106,1.323066 2.223305,-0.669919 7.142031,-8.091162 3.589436,-5.415645 8.234182,-12.693378 10.321658,-16.17274 2.087476,-3.479361 4.754523,-6.713337 5.926772,-7.186613 L 55.5,11.126773 53.331559,11.063386 C 51.893701,11.021356 50.43433,12.179205 49,14.5 47.810285,16.425 46.622025,18 46.359424,18 45.803329,18 46.580987,16.578762 49.23206,12.75 L 51.136188,10 73.818094,10.0048 C 90.144707,10.0082 101.12317,10.563084 113,11.985009 c 9.075,1.086483 20.775,1.985134 26,1.997003 l 9.5,0.02158 2.64644,4.248212 c 1.45555,2.336517 4.54652,8.073212 6.86883,12.748212 5.42966,10.930322 21.98215,41 22.56932,41 0.24701,0 -0.71373,-2.294745 -2.13498,-5.099434 -1.42124,-2.804688 -2.39579,-5.287714 -2.16567,-5.517835 0.23012,-0.230121 1.90526,2.402124 3.72253,5.849434 C 185.01059,76.724831 192.11969,89 192.6132,89 c 0.24099,0 -0.28158,-1.391819 -1.16126,-3.09293 -2.45962,-4.75638 -1.11626,-4.444927 1.52738,0.354117 1.28426,2.331347 3.15885,5.038768 4.16575,6.01649 3.70158,3.594332 3.36468,6.100658 -2.01792,15.011813 -2.78598,4.61233 -5.38945,9.24656 -5.78548,10.29829 -0.39604,1.05172 -2.14908,4.16222 -3.89565,6.91222 -5.04536,7.94402 -9.80222,17.78117 -9.913,20.5 -0.16799,4.12312 -5.53302,11.823 -5.53302,7.94098 0,-0.58246 -0.42273,-0.79775 -0.9394,-0.47843 -1.02675,0.63456 -11.64763,16.65023 -17.06917,25.7393 -2.97359,4.98516 -3.84669,5.74961 -6.94626,6.08189 -3.4448,0.36929 -3.42675,0.38481 0.63744,0.54816 3.19038,0.12822 4.32114,-0.24705 4.76653,-1.5819 0.32115,-0.9625 1.51423,-2.875 2.65129,-4.25 1.57168,-1.90056 1.45332,-1.42101 -0.49362,2 l -2.56102,4.5 -24.77289,0.14992 C 110.38587,185.74002 96.309869,185.29151 90,184.52602 Z m 56.00235,-7.40249 c 0.001,-0.34294 1.23879,-2.07306 2.75,-3.84472 1.51121,-1.77165 6.31768,-10.09665 10.68105,-18.5 4.36338,-8.40334 8.30368,-15.42974 8.75623,-15.61422 0.45256,-0.18448 0.56847,-0.74698 0.25758,-1.25 C 168.13633,137.41157 168.38508,137 169,137 c 0.61492,0 0.83992,-0.45 0.5,-1 -0.33992,-0.55 -0.11492,-1 0.5,-1 0.61492,0 0.83992,-0.45 0.5,-1 -0.33992,-0.55 -0.11492,-1 0.5,-1 0.61492,0 0.83992,-0.45 0.5,-1 -0.33992,-0.55 -0.15731,-1 0.4058,-1 0.56311,0 1.53456,-0.9543 2.15878,-2.12068 0.8085,-1.51068 0.81643,-1.92382 0.0276,-1.43629 -0.78226,0.48346 -0.76862,-0.0591 0.0465,-1.84797 0.6346,-1.39279 1.53286,-2.29808 1.99613,-2.01177 0.46328,0.28632 0.59928,-0.11276 0.30224,-0.88684 -0.72005,-1.87641 3.46968,-8.87215 4.8154,-8.04045 0.60568,0.37433 0.76302,0.17798 0.36867,-0.46008 -0.37836,-0.61221 0.90211,-4.2705 2.8455,-8.12955 C 186.40996,102.20733 188,98.628984 188,98.114497 188,97.600009 186.11361,93.876276 183.80801,89.839533 176.2735,76.647752 160.6575,47.681277 153,32.693054 l -7.5,-14.679946 -45.25659,0.273595 -45.256587,0.273595 -2.859901,3.469851 C 50.553977,23.938567 45.744795,32.25 41.439851,40.5 c -4.304944,8.25 -8.192827,15.150935 -8.639741,15.33541 -0.446914,0.184476 -0.55821,0.746976 -0.247324,1.25 C 32.863673,57.588435 32.614919,58 32,58 c -0.614919,0 -0.839919,0.45 -0.5,1 0.339919,0.55 0.114919,1 -0.5,1 -0.614919,0 -0.839919,0.45 -0.5,1 0.339919,0.55 0.114919,1 -0.5,1 -0.614919,0 -0.839919,0.45 -0.5,1 0.339919,0.55 0.157309,1 -0.405799,1 -0.563109,0 -1.534562,0.954305 -2.158785,2.120677 -0.808492,1.510681 -0.81643,1.92382 -0.0276,1.436294 0.78226,-0.483464 0.768621,0.05906 -0.04646,1.847966 -0.634599,1.392792 -1.607542,2.251931 -2.162096,1.909198 -0.561498,-0.347025 -0.701501,-0.126771 -0.315952,0.49706 0.985077,1.593888 -3.195584,9.422861 -4.576163,8.569616 -0.675299,-0.417357 -0.836135,-0.236729 -0.407198,0.457307 0.389933,0.630924 -1.17126,4.761172 -3.469318,9.178329 l -4.178287,8.031195 6.999045,12.226178 c 7.530459,13.15447 26.66104,48.61602 32.648945,60.51997 l 3.66891,7.29379 45.465378,-0.17027 c 25.00596,-0.0936 45.46644,-0.45085 45.46773,-0.79378 z M 110.85812,153.36792 98.396942,140.90675 85.676792,153.06571 C 71.172111,166.93048 72.82815,166.52277 61.519821,159.01316 50.292457,151.55733 38.864923,138.5715 33.963987,127.69973 L 32.070771,123.5 44.496851,111 56.92293,98.5 44.807906,85.683622 32.692882,72.867244 34.425372,69.234175 C 41.134268,55.165473 57.481253,39.275581 71.074691,33.60964 L 74.649382,32.119657 86.995726,44.495716 99.34207,56.871774 112.1174,44.851478 c 10.1193,-9.521233 13.19215,-11.888006 14.78016,-11.38399 4.28067,1.358631 16.89313,10.5944 22.75515,16.66299 6.09343,6.308165 12.24608,15.079463 14.87047,21.199556 L 165.88251,74.5 153.47782,87 141.07314,99.5 152.98904,112 c 6.55375,6.875 11.93729,12.97069 11.96343,13.54598 0.11149,2.4536 -9.61035,16.4886 -15.76914,22.76524 -6.28391,6.40416 -17.4653,14.35104 -23.27368,16.54116 -2.42287,0.91357 -3.39606,0.17102 -15.05153,-11.48446 z m -25.857646,-15.8684 13.472687,-13.50047 13.757429,13.7311 13.75744,13.73111 3.44802,-1.85689 c 5.34723,-2.87967 13.82084,-10.87904 18.08978,-17.07735 l 3.87124,-5.62086 -13.69434,-13.69434 -13.69434,-13.694339 13.72643,-13.752754 13.72644,-13.752754 -1.85689,-3.448026 C 146.72553,63.218269 138.72596,54.743546 132.53221,50.477746 L 126.91655,46.610088 113.1951,60.305271 99.473659,74.000454 85.568126,60.068257 71.662594,46.13606 67.081297,49.283553 C 60.181893,54.023659 54.610936,59.466579 50.398323,65.583105 L 46.610088,71.083454 60.314266,84.81391 74.018445,98.544367 60.509222,111.95395 C 53.07915,119.32921 47,125.90723 47,126.57175 c 0,1.58415 7.929679,12.2007 11.615035,15.55065 3.398112,3.08884 11.417775,8.8776 12.298897,8.8776 0.33762,0 6.676564,-6.07521 14.086542,-13.50048 z M 84,109.86663 c 0,-1.75552 0.639854,-2.80069 1.919443,-3.13531 1.719448,-0.44965 1.916417,-1.45789 1.890405,-9.676604 C 87.784858,89.15918 87.517251,87.715466 85.890405,86.699484 84.850682,86.050166 84,84.502152 84,83.259453 84,81.03301 84.184164,81 96.605644,81 c 11.622336,0 12.811916,0.175511 15.249996,2.25 2.42496,2.06332 2.60288,2.720319 2.14436,7.918632 C 113.33723,98.682594 110.6326,101 102.52585,101 c -5.583163,0 -5.654471,0.0367 -5.342272,2.75 0.248531,2.15997 0.906453,2.81789 3.066422,3.06642 2.23823,0.25754 2.75,0.81584 2.75,3 V 112.5 H 93.5 84 Z M 103.8,94.8 c 0.66,-0.66 1.2,-2.699501 1.2,-4.532224 0,-2.525716 -0.53555,-3.530336 -2.2127,-4.150757 C 98.47255,84.520891 97,85.793018 97,91.116631 97,95.798416 97.115583,96 99.8,96 c 1.54,0 3.34,-0.54 4,-1.2 z M 180,118 c 0.5887,-1.1 0.84537,-2 0.57037,-2 -0.275,0 -0.98167,0.9 -1.57037,2 -0.5887,1.1 -0.84537,2 -0.57037,2 0.275,0 0.98167,-0.9 1.57037,-2 z m 5,-9 c 0.5887,-1.1 0.84537,-2 0.57037,-2 -0.275,0 -0.98167,0.9 -1.57037,2 -0.5887,1.1 -0.84537,2 -0.57037,2 0.275,0 0.98167,-0.9 1.57037,-2 z M 17,86 c 0.588702,-1.1 0.845368,-2 0.570368,-2 -0.275,0 -0.981666,0.9 -1.570368,2 -0.588702,1.1 -0.845368,2 -0.570368,2 0.275,0 0.981666,-0.9 1.570368,-2 z m 5,-9 c 0.588702,-1.1 0.845368,-2 0.570368,-2 -0.275,0 -0.981666,0.9 -1.570368,2 -0.588702,1.1 -0.845368,2 -0.570368,2 0.275,0 0.981666,-0.9 1.570368,-2 z"
     id="path5995"
     inkscape:connector-curvature="0" />
</svg>
